<mxfile host="app.diagrams.net" modified="2024-04-01T23:16:11.557Z" agent="Mozilla/5.0 (Windows NT 10.0; Win64; x64; rv:124.0) Gecko/20100101 Firefox/124.0" version="24.2.1" etag="pk8o2odFYT0rjzC7vVgQ" type="github">
  <diagram name="PÃ¡gina-1" id="VqpI15v3oml5Krbbxb7k">
    <mxGraphModel>
      <root>
        <mxCell id="0" />
        <mxCell id="1" parent="0" />
      </root>
    </mxGraphModel>
  </diagram>
</mxfile>
